<svg width="51" height="44" viewBox="0 0 51 44" fill="none" xmlns="http://www.w3.org/2000/svg">
<ellipse cx="23.112" cy="21.8135" rx="19.571" ry="19.1928" fill="#DFFB6D"/>
<path d="M6.15746 40.8173C5.27503 41.4161 3.66775 42.6767 2.50168 41.8573C1.20955 40.9749 2.65926 38.6427 3.13199 37.7288C4.20351 35.6488 5.52715 33.6948 7.00837 31.8985C10.0023 28.2427 13.5636 25.0912 17.1563 22.0342C18.0703 21.2463 16.7466 19.9226 15.8327 20.7105C10.8848 24.9336 5.93685 29.3772 2.50168 35.0185C1.33561 36.9409 -0.838943 40.1555 0.4847 42.4561C1.99744 45.0719 5.18048 43.7797 7.0714 42.4876C8.11141 41.7628 7.16595 40.124 6.15746 40.8173V40.8173Z" fill="#191D23"/>
<path d="M24.1843 15.9517C27.0207 13.6511 29.8571 11.3505 32.6934 9.04985C33.6389 8.29348 32.2837 6.93833 31.3698 7.72621C28.5334 10.0268 25.697 12.3274 22.8607 14.6281C21.8837 15.3844 23.2388 16.7081 24.1843 15.9517V15.9517Z" fill="#191D23"/>
<path d="M40.3528 5.2999C41.8025 4.54353 47.0656 1.45503 48.011 3.94474C48.8304 6.08778 46.8134 9.2078 45.5213 10.7836C44.7649 11.729 46.0886 13.0527 46.845 12.1072C48.7359 9.80659 51.2571 5.55202 49.4292 2.52655C47.3492 -0.877104 41.834 2.36897 39.3758 3.6611C38.3043 4.22838 39.2813 5.86718 40.3528 5.2999V5.2999Z" fill="#191D23"/>
<path d="M13.8483 31.8041C18.1344 26.9192 22.9247 22.4755 28.1563 18.5991C29.1333 17.8743 28.1878 16.2355 27.2108 16.9604C21.8532 20.9313 16.9368 25.438 12.5247 30.4804C11.7053 31.3629 13.0289 32.718 13.8483 31.8041V31.8041Z" fill="#191D23"/>
<path fill-rule="evenodd" clip-rule="evenodd" d="M42.777 22.1912V21.813C42.777 21.813 42.777 21.6869 42.714 21.4033V21.4032C42.714 21.1511 42.714 20.7729 42.6825 20.3003C42.651 19.3233 42.4934 17.9051 42.0207 16.1402C41.5479 14.4069 40.8231 12.2639 39.4364 10.1208C38.0497 7.94626 36.1273 5.70867 33.5115 3.9123C32.2194 3.02987 30.7382 2.24198 29.1309 1.61168C27.5236 0.981371 25.7903 0.571672 23.9624 0.351065C20.3381 -0.09015 16.3672 0.414095 12.7114 2.05289C9.05562 3.66017 5.74651 6.37049 3.44589 9.86869C2.87862 10.7511 2.37437 11.6651 1.93316 12.6105C1.49194 13.5875 1.14527 14.5645 0.830119 15.573C0.546482 16.5815 0.35739 17.6215 0.199813 18.6615C0.0737517 19.7015 0.0422363 20.773 0.0422363 21.813C0.105267 26.0361 1.49194 30.133 3.79256 33.5367C6.12469 36.9404 9.33926 39.6192 12.9005 41.258C13.8144 41.6677 14.7284 42.0143 15.6423 42.298C16.5563 42.5816 17.5017 42.8022 18.4472 42.9598C18.6048 42.9808 18.7624 43.0053 18.9199 43.0298C19.2351 43.0788 19.5502 43.1279 19.8654 43.1489C20.086 43.1804 20.3381 43.2119 20.5587 43.2119C20.689 43.2119 20.8108 43.2203 20.9286 43.2285C21.0388 43.2361 21.1454 43.2434 21.2521 43.2434C21.566 43.2644 21.8661 43.2575 22.1707 43.2505C22.3248 43.247 22.48 43.2434 22.6387 43.2434C22.788 43.2328 22.9409 43.2257 23.0949 43.2186C23.3962 43.2047 23.7019 43.1906 23.9939 43.1489C24.1389 43.1296 24.2809 43.1132 24.4208 43.0971C24.7372 43.0606 25.0431 43.0253 25.349 42.9598C25.5696 42.8968 25.7902 42.8653 26.0108 42.8337L26.0109 42.8337C26.1212 42.8022 26.2315 42.7786 26.3418 42.7549C26.4521 42.7313 26.5624 42.7077 26.6727 42.6761C27.0824 42.5816 27.5236 42.4555 27.9333 42.3295C28.343 42.2034 28.7527 42.0774 29.1624 41.9198C30.7697 41.321 32.2509 40.5331 33.543 39.6507C36.1903 37.8543 38.1128 35.6167 39.4679 33.4737C40.8231 31.2991 41.5794 29.1876 42.0522 27.4542C42.5249 25.6894 42.6825 24.2712 42.7455 23.2942C42.777 22.8215 42.777 22.4433 42.777 22.1912ZM42.6508 21.4349V21.813C42.6508 21.813 42.6193 21.9391 42.6508 22.1597C42.6378 22.2638 42.6355 22.3894 42.6329 22.5343C42.6292 22.7403 42.6248 22.9852 42.5878 23.2627C42.5248 24.2082 42.3672 25.6264 41.8314 27.3597C41.5793 28.2422 41.2326 29.1561 40.7599 30.1331C40.2872 31.1101 39.7199 32.1185 38.995 33.127C37.5453 35.144 35.5284 37.161 32.9756 38.7683C31.6835 39.5877 30.2653 40.281 28.7526 40.8483C27.2398 41.4156 25.5695 41.7937 23.8677 42.0144C23.458 42.0774 23.0168 42.1089 22.5756 42.1404C22.3549 42.1404 22.1343 42.1483 21.9137 42.1562C21.6931 42.1641 21.4725 42.1719 21.2519 42.1719H20.5586C20.4483 42.1719 20.338 42.1641 20.2277 42.1562C20.1174 42.1483 20.0071 42.1404 19.8967 42.1404C19.6761 42.1247 19.4476 42.101 19.2191 42.0774C18.9907 42.0538 18.7622 42.0301 18.5416 42.0144C17.6592 41.9198 16.7452 41.7622 15.8313 41.5101C14.9173 41.2895 14.0349 40.9744 13.1525 40.6277C11.3876 39.9028 9.68578 38.9259 8.14153 37.6968C6.59728 36.4677 5.24212 34.9864 4.10757 33.3161C3.54029 32.4967 3.03605 31.6143 2.59483 30.7004C2.18514 29.7864 1.80695 28.841 1.52331 27.864C1.23968 26.887 1.05058 25.8785 0.893007 24.87C0.766946 23.8615 0.73543 22.8215 0.73543 21.813C0.766946 20.773 0.861492 19.7961 1.01907 18.7876C1.17664 17.7791 1.42877 16.8021 1.74392 15.8566C2.05907 14.9112 2.43726 13.9657 2.87847 13.0833C3.31969 12.2009 3.82393 11.3499 4.39121 10.5305C6.66031 7.28447 9.81184 4.76324 13.2785 3.31354C13.3888 3.26626 13.4991 3.22687 13.6094 3.18748C13.7197 3.14808 13.83 3.10869 13.9404 3.06141L13.9404 3.06141C14.161 2.96687 14.3816 2.87232 14.6022 2.80929C14.8228 2.74626 15.0434 2.67535 15.264 2.60444C15.4846 2.53353 15.7052 2.46262 15.9258 2.39959C16.8082 2.14747 17.7222 1.95838 18.6046 1.83232C19.0458 1.76929 19.4871 1.70626 19.9283 1.67474C20.0386 1.67474 20.1489 1.66686 20.2592 1.65898C20.3695 1.6511 20.4798 1.64322 20.5901 1.64322C20.8107 1.61171 21.0313 1.61171 21.2519 1.61171H21.5671H21.9137H22.5756C22.7201 1.62204 22.8613 1.62898 23.0014 1.63587C23.2887 1.64999 23.571 1.66388 23.8677 1.70626C25.5695 1.89535 27.2398 2.27353 28.7526 2.80929C30.2653 3.37657 31.6835 4.06991 32.9756 4.85779C35.5599 6.43355 37.5453 8.45054 38.995 10.4675C39.7199 11.476 40.2872 12.4845 40.7599 13.4615C41.2326 14.4384 41.5793 15.3839 41.8314 16.2348C42.3672 17.9682 42.5248 19.3864 42.5878 20.3318C42.6508 20.8045 42.6508 21.1827 42.6508 21.4348V21.4349Z" fill="#191D23"/>
</svg>
